<svg width="107" height="20" viewBox="0 0 107 20" fill="none" xmlns="http://www.w3.org/2000/svg">
<path d="M69.2505 5.02043C69.2505 5.06494 69.2433 5.11089 69.2274 5.15252C69.2116 5.19416 69.1857 5.23292 69.154 5.26451C69.1223 5.29753 69.0848 5.32194 69.0431 5.33917C69.0013 5.3564 68.9567 5.36502 68.912 5.36502H66.3789V7.84027H68.9106C68.9999 7.84027 69.0863 7.87616 69.1511 7.93933C69.2145 8.00251 69.2519 8.08865 69.2519 8.1791V13.4125C69.2519 17.3608 72.3409 19.3651 76.1183 18.2897C76.4236 18.2036 76.7231 18.1002 77.0169 17.9796C77.4417 17.803 77.8521 17.5934 78.2453 17.355C78.5607 17.1641 78.8617 16.9487 79.1439 16.7118L79.4233 16.4677L78.1618 14.3873C75.0656 16.9875 72.0183 16.5281 72.0183 13.1239V8.1791C72.0183 8.13459 72.027 8.09009 72.0428 8.04989C72.0601 8.00825 72.0846 7.97092 72.1148 7.93933C72.1465 7.90775 72.1825 7.88334 72.2243 7.86611C72.2646 7.84888 72.3092 7.84027 72.3539 7.84027H78.4584V5.36502H72.3567C72.2675 5.36502 72.181 5.32912 72.1177 5.26595C72.0543 5.20278 72.0183 5.11663 72.0183 5.02618V1.52148L69.2505 2.29392V5.01756V5.02043Z" fill="black"/>
<path d="M93.1752 16.6808C92.8915 16.9177 92.5905 17.1331 92.2751 17.3241C91.8834 17.5653 91.4715 17.7734 91.0453 17.9486C90.5456 18.1525 90.0271 18.3104 89.4972 18.4195C88.8923 18.5416 88.2745 18.6019 87.6567 18.5976C86.6631 18.6162 85.6737 18.4554 84.7362 18.1252C83.924 17.8309 83.1881 17.3571 82.5847 16.7383C82.0029 16.118 81.5622 15.3815 81.2901 14.5746C80.9934 13.6916 80.8465 12.7655 80.8566 11.8337C80.8408 10.8646 80.992 9.89974 81.3016 8.98085C81.5694 8.18257 82.0144 7.45607 82.6063 6.85593C83.1968 6.25578 83.9168 5.79921 84.7103 5.52067C85.2561 5.31966 85.8235 5.18614 86.4024 5.12296C88.5827 4.8717 90.7904 5.26223 92.7532 6.24717L91.8388 8.61761C90.9401 8.22995 89.356 7.62262 87.9779 7.62262C86.0813 7.62262 84.7333 8.18831 84.1083 9.55228C83.8146 10.2443 83.6705 10.9923 83.6835 11.7447C83.6965 12.497 83.8678 13.2379 84.1861 13.9199C84.9695 15.4174 86.5032 15.9457 88.0513 15.9457C89.5116 15.9457 90.8811 15.3915 92.157 14.2845C92.5905 15.0053 93.0254 15.7246 93.4618 16.4454L93.1766 16.6823L93.1752 16.6808Z" fill="black"/>
<path d="M32.9823 7.5247C34.3101 7.5247 35.6883 7.98989 37.1197 8.91882C37.5042 8.16361 37.8873 7.40553 38.2689 6.64889C36.6589 5.60222 34.7781 5.05232 32.8585 5.06668C32.2162 5.06524 31.5753 5.13847 30.9503 5.28348C30.3642 5.417 29.804 5.64816 29.2957 5.96834C28.8147 6.2799 28.41 6.6977 28.1134 7.1873C27.7951 7.73145 27.6352 8.3517 27.6511 8.982C27.6324 9.35242 27.6871 9.72285 27.8124 10.0717C27.9377 10.4206 28.1306 10.7408 28.3812 11.0136C28.8478 11.4817 29.4051 11.8492 30.02 12.0918C30.6738 12.3474 31.3478 12.5441 32.0347 12.6791C34.624 13.2204 35.5111 13.6138 35.6854 14.3489C35.982 15.5219 34.6125 16.2527 32.5892 16.112C31.0843 16.0057 29.7234 15.3683 28.5051 14.1981L27.0664 16.5485C28.6707 17.888 30.6983 18.6102 32.7865 18.5844C34.637 18.5844 36.0555 18.1838 37.0074 17.3984C37.4711 17.0309 37.8455 16.5614 38.099 16.0244C38.3524 15.4889 38.4792 14.9016 38.4691 14.3087C38.5036 13.5563 38.2473 12.8183 37.7534 12.2512C37.294 11.7602 36.7366 11.3711 36.1174 11.1098C34.6053 10.4537 32.6641 10.2928 31.4198 9.82192C31.0943 9.69988 30.6047 9.49026 30.4463 9.11265C30.2591 8.68049 30.5601 8.28421 30.8812 8.05162C31.5293 7.58356 32.5258 7.48306 33.266 7.52039" fill="black"/>
<path d="M98.1883 10.4478C98.3712 9.61366 98.8406 8.86994 99.5146 8.34876C100.19 7.83045 101.018 7.55334 101.868 7.56052C102.742 7.57775 103.532 7.93813 103.92 8.77948C104.254 9.51172 104.234 10.5254 104.234 11.2763V18.3072H107.002V10.913C107.002 7.89936 106.296 6.15778 104.568 5.43847C102.84 4.71915 100.07 5.0221 98.4979 6.14773C98.4691 6.16783 98.436 6.18076 98.4014 6.18219C98.3668 6.18507 98.3308 6.17645 98.3006 6.16065C98.2704 6.14343 98.2444 6.11902 98.2271 6.08887C98.2099 6.05872 98.2012 6.02426 98.2027 5.98837V1.5332L95.4766 2.29415V18.3057H98.1983L98.1911 10.4464L98.1883 10.4478Z" fill="black"/>
<path d="M18.4089 1.88156V19.6491C18.4089 19.695 18.4031 19.7395 18.3859 19.7812C18.37 19.8228 18.3441 19.8616 18.3124 19.8946C18.2807 19.9276 18.2433 19.9535 18.2015 19.9707C18.1598 19.9879 18.1151 19.998 18.069 19.998H9.27293L16.0486 16.0669L2.35759 8.14721V10.9757L10.7087 15.807C10.7562 15.8328 10.7965 15.8716 10.8239 15.919C10.8513 15.9664 10.8657 16.0195 10.8657 16.074C10.8657 16.1286 10.8513 16.1817 10.8239 16.2291C10.7965 16.2765 10.7562 16.3153 10.7087 16.3411L4.38092 19.9994H0.338579C0.293936 19.9994 0.249291 19.9908 0.206088 19.9721C0.164325 19.9549 0.126884 19.9291 0.0952022 19.896C0.0635201 19.863 0.0390384 19.8257 0.0231974 19.7826C0.00735636 19.741 -0.00128474 19.695 0.000155354 19.6505V1.883C0.000155354 1.83849 0.00879487 1.79541 0.026076 1.75377C0.0433572 1.71214 0.0678402 1.67481 0.0995223 1.64466C0.131204 1.61307 0.168646 1.58866 0.208969 1.57143C0.249291 1.55421 0.293936 1.54559 0.338579 1.54703H9.13036L2.35903 5.46378L16.05 13.3834V10.555L7.6989 5.72652C7.65282 5.70068 7.61394 5.66191 7.58802 5.61741C7.5621 5.57146 7.54769 5.51978 7.54769 5.46665C7.54769 5.41353 7.5621 5.36184 7.58802 5.3159C7.61394 5.26995 7.65282 5.23262 7.6989 5.20534L14.0267 1.54703H18.069C18.1137 1.54703 18.1569 1.55564 18.1986 1.57143C18.2404 1.58866 18.2764 1.61307 18.3081 1.64466C18.3398 1.67625 18.3643 1.71357 18.3815 1.75377C18.3988 1.79541 18.4075 1.83849 18.4075 1.883L18.4089 1.88156Z" fill="black"/>
<path d="M51.4913 14.3873C48.3951 16.9875 45.345 16.528 45.345 13.1239V8.1791C45.345 8.08865 45.381 8.00251 45.4444 7.93933C45.5077 7.87616 45.5941 7.84026 45.6834 7.84026H51.788V5.36501H45.6834C45.5941 5.36501 45.5077 5.32912 45.4444 5.26594C45.381 5.20277 45.345 5.11663 45.345 5.02617V1.52148L42.5771 2.29392V5.01756C42.5771 5.06207 42.5699 5.10657 42.5541 5.14965C42.5383 5.19128 42.5138 5.23005 42.4821 5.26164C42.4504 5.29466 42.413 5.31907 42.3712 5.33773C42.3294 5.35496 42.2848 5.36358 42.2402 5.36358H39.707V7.83883H42.2387C42.328 7.83883 42.4144 7.87472 42.4778 7.93789C42.5411 8.00107 42.5771 8.08721 42.5771 8.17766V13.411C42.5771 17.3594 45.6676 19.3637 49.4464 18.2883C49.7503 18.2021 50.0498 18.0988 50.3421 17.9782C50.7684 17.8016 51.1803 17.5934 51.5734 17.3536C51.8888 17.1626 52.1898 16.9473 52.472 16.7104L52.75 16.4663L51.4913 14.3859V14.3873Z" fill="black"/>
<path d="M59.1469 7.84049C59.2362 7.84049 59.3226 7.87638 59.3859 7.93956C59.4493 8.00273 59.4853 8.08887 59.4853 8.17932V15.4945C59.4853 15.5376 59.4752 15.5821 59.4579 15.6223C59.4407 15.6625 59.4162 15.6998 59.3845 15.73C59.3528 15.7601 59.3154 15.7845 59.275 15.8003C59.2347 15.8161 59.1915 15.8247 59.1469 15.8233H55.2773V18.3057H66.3445V15.8233H62.5772C62.4893 15.8233 62.4044 15.7874 62.341 15.7257C62.2776 15.6639 62.2431 15.5778 62.2431 15.4902V5.36523H55.2773V7.84049H59.1469Z" fill="black"/>
<path d="M60.7975 3.68613C61.1618 3.68613 61.5175 3.57845 61.8199 3.37601C62.1224 3.17356 62.3585 2.88497 62.4982 2.54757C62.6379 2.21017 62.6739 1.83974 62.6019 1.48224C62.5313 1.12473 62.3557 0.795944 62.0979 0.538943C61.8401 0.280506 61.5118 0.105342 61.1546 0.03499C60.7975 -0.0353623 60.4274 0.0005347 60.0918 0.141239C59.7548 0.281944 59.4683 0.517407 59.2666 0.821788C59.065 1.12473 58.957 1.48224 58.957 1.84692C58.957 2.33508 59.1514 2.80314 59.4971 3.14915C59.8427 3.49374 60.3093 3.68756 60.7975 3.68756V3.68613Z" fill="black"/>
</svg>
